<svg width="60" height="16" viewBox="0 0 60 16" fill="none" xmlns="http://www.w3.org/2000/svg">
<path d="M1.02519 0.143929C0.635147 0.302249 0.371116 0.508546 0.161092 0.829986L0.0230761 1.03148L0.005074 7.92564C-0.00692738 14.7958 -0.00692738 14.8198 0.113086 15.0837C0.257103 15.3907 0.635147 15.7217 1.01919 15.8897L1.28322 16H29.9965H58.7099L59.0279 15.8609C59.3879 15.7025 59.634 15.4963 59.832 15.194L59.97 14.9925L59.988 8.06477L60 1.13703L59.862 0.892354C59.658 0.54213 59.3879 0.316642 58.9679 0.143929L58.6018 0H29.9965H1.39123L1.02519 0.143929ZM58.6198 0.810795C58.7339 0.85877 58.8899 0.969115 58.9679 1.05547L59.0999 1.21379L59.0879 8.03118L59.0699 14.8486L58.9379 14.9973C58.8599 15.0789 58.7099 15.1844 58.5958 15.2276C58.4098 15.2996 56.0695 15.3043 29.9965 15.3043C3.92353 15.3043 1.58326 15.2996 1.39723 15.2276C1.28322 15.1844 1.1332 15.0789 1.0552 14.9973L0.92318 14.8486V8.01199V1.17541L1.0552 1.02669C1.1272 0.945127 1.27722 0.844378 1.38523 0.8012C1.56525 0.729236 3.94753 0.719641 29.9965 0.719641C57.5397 0.719641 58.4158 0.724438 58.6198 0.810795Z" fill="#141414"/>
<path d="M5.78379 7.94962C4.69167 9.12983 3.79756 10.1085 3.78556 10.1325C3.77356 10.1517 4.1456 10.1709 4.60766 10.1709H5.45375L5.8258 9.76312L6.19784 9.35532H8.38809L10.5843 9.36012L10.9384 9.76312L11.2864 10.1661L12.1505 10.1805C12.6246 10.1901 13.0146 10.1805 13.0146 10.1661C13.0146 10.1469 12.8046 9.90705 12.5526 9.63358C12.2945 9.36012 11.3944 8.38621 10.5543 7.46986L9.03017 5.8051H8.39409H7.75802L5.78379 7.94962ZM9.02417 7.66177L9.58223 8.27586L8.4121 8.29025C7.76402 8.29505 7.22396 8.29505 7.21196 8.28066C7.16395 8.24228 8.36409 6.96612 8.4181 7.0045C8.4481 7.02849 8.71813 7.32114 9.02417 7.66177Z" fill="#141414"/>
<path d="M14.3047 5.87229C13.7467 6.01142 13.3266 6.34725 13.1586 6.79343C13.0386 7.11966 13.0386 8.86119 13.1646 9.19702C13.2846 9.52326 13.6927 9.88308 14.1067 10.0318L14.4248 10.1469L17.4131 10.1613L20.3954 10.1757V9.66719V9.16344H17.7851C14.9708 9.16344 14.8688 9.15385 14.6708 8.91397C14.5508 8.76524 14.5268 7.29238 14.6408 7.09088C14.7908 6.82221 14.9228 6.81262 17.7851 6.81262H20.3954V6.30887V5.80512L17.4731 5.80992C15.3009 5.80992 14.4848 5.82911 14.3047 5.87229Z" fill="#141414"/>
<path d="M20.9355 6.30886V6.81261H22.5857H24.2359V8.49177V10.1709H24.986H25.7421L25.7241 8.49177L25.7061 6.81261H27.3743H29.0365V6.30886V5.80511H24.986H20.9355V6.30886Z" fill="#141414"/>
<path d="M34.4971 7.98802V10.1709H35.2472H35.9972V7.98802V5.80511H35.2472H34.4971V7.98802Z" fill="#141414"/>
<path d="M37.1373 7.98802V10.1709H37.8574H38.5775V8.68367C38.5775 7.86328 38.5895 7.19642 38.6075 7.19642C38.6255 7.19642 39.8916 7.86328 41.4278 8.68367L44.2181 10.1709H44.8482H45.4783V7.98802V5.80511H44.7582H44.0381L44.0261 7.29237L44.0081 8.77962L41.2178 7.29237L38.4275 5.80511H37.7854H37.1373V7.98802Z" fill="#141414"/>
<path d="M47.7046 5.88188C47.0865 6.05939 46.6785 6.40962 46.5585 6.89418C46.4505 7.30197 46.5045 9.09148 46.6305 9.31696C46.7805 9.58563 47.1885 9.90707 47.5366 10.0318L47.8486 10.1469L50.837 10.1613L53.8193 10.1757V9.66719V9.16344H51.257C49.6788 9.16344 48.6047 9.14425 48.4667 9.11547C48.0406 9.01951 47.9986 8.92356 47.9986 7.99283C47.9986 7.09088 48.0226 7.02371 48.3587 6.88458C48.5027 6.82221 48.9467 6.81262 51.179 6.81262H53.8193V6.30887V5.80512H50.897C48.4187 5.80992 47.9266 5.81951 47.7046 5.88188Z" fill="#141414"/>
<path d="M54.7194 9.66718V10.1709H55.4694H56.2195V9.66718V9.16343H55.4694H54.7194V9.66718Z" fill="#141414"/>
</svg>
