<svg width="171" height="112" viewBox="0 0 171 112" fill="none" xmlns="http://www.w3.org/2000/svg">
<path d="M169.999 71.8955C176.018 79.9716 153.531 86.0041 138.841 88.5151C136.555 88.9059 134.235 88.9769 131.921 88.8096L129.305 88.6204C112.503 87.4049 95.3975 100.465 80.6383 108.587C79.5085 109.208 78.3168 109.811 77.0605 110.389C60.7792 117.879 23.6941 95.1301 7.18668 82.8192C-0.275594 78.6578 -1.63232 71.8955 1.75959 59.4112C3.42652 53.2759 13.2525 50.6171 23.9841 49.6872C33.0194 48.9043 42.9059 38.198 50.6034 33.4024C59.2867 27.9925 100.352 39.1243 119.799 45.3665C133.819 50.5682 163.487 63.1565 169.999 71.8955Z" fill="#F3F4F4"/>
<path d="M70.9357 0.70945C70.1756 1.08952 68.1739 2.2044 66.5015 3.19259C64.8292 4.18078 62.7262 5.39701 61.814 5.87843C57.4051 8.26022 57.7345 7.60143 57.7599 14.4174C57.7599 17.9394 57.6585 20.1945 57.4811 20.5746C57.3291 20.8786 56.721 21.4614 56.0876 21.8415C54.1112 23.0577 53.9338 23.5898 53.9845 28.2267C54.0605 33.193 54.0605 33.193 51.5774 31.6727C50.6145 31.0899 49.5756 30.5071 49.2969 30.3804C48.9929 30.2284 48.4861 29.975 48.1314 29.7723C47.7006 29.519 46.7378 29.3923 45.2428 29.3923C42.7597 29.3923 43.5452 29.0882 37.388 32.5342C36.6785 32.9143 35.9184 33.3957 35.6903 33.5984C35.4876 33.8011 35.2089 33.9531 35.1075 33.9531C34.9302 33.9531 32.4977 35.3721 30.6987 36.5376C30.3186 36.791 29.6852 37.1457 29.2544 37.3738C28.849 37.5765 28.1649 37.9819 27.7341 38.2606C26.1378 39.2995 26.1378 39.2995 25.7324 38.8687C25.4284 38.59 25.327 37.9566 25.327 36.4616C25.327 33.8518 24.9976 33.2437 23.0972 32.2301C21.805 31.546 21.3236 31.4193 19.7526 31.4193C17.4722 31.4193 17.4468 31.4193 10.7829 35.3467C10.3015 35.6255 8.78118 36.5123 7.41292 37.2978C3.89092 39.3502 3.25746 39.9329 3.20678 41.1745C3.18145 41.7319 3.20678 47.5851 3.23212 54.1477L3.2828 66.1326L4.1443 67.0955C4.62572 67.6276 5.51256 68.3117 6.12067 68.6157C6.72879 68.9451 7.38758 69.2999 7.59029 69.4266C9.82005 70.7695 15.5971 73.9874 16.5853 74.4182C18.283 75.153 21.1969 75.2037 22.6665 74.4942C24.8202 73.4807 25.327 72.5432 25.327 69.5533C25.327 67.3995 25.7071 67.0194 26.898 67.9063C27.278 68.185 27.6328 68.413 27.7088 68.413C27.7848 68.413 30.1919 69.7813 33.0551 71.4536C35.9437 73.1259 38.3255 74.4942 38.4015 74.4942C38.4522 74.4942 39.263 74.9503 40.2005 75.5331C42.9877 77.2561 45.2175 77.6615 47.6246 76.9267C48.6635 76.6226 52.3375 74.5702 55.6821 72.4672C58.0133 70.9975 57.8612 70.2627 57.9626 84.5281C57.9879 91.3441 58.0893 97.1719 58.1399 97.4759C58.3426 98.3881 59.4829 99.5283 61.2059 100.542C62.118 101.049 63.2836 101.733 63.7904 102.037C64.2971 102.341 65.0066 102.746 65.3613 102.949C65.7161 103.126 67.1857 103.988 68.6553 104.824C71.5438 106.496 72.7347 106.927 74.4831 106.927C76.1807 106.927 77.853 106.319 80.5389 104.748C81.8818 103.962 83.3261 103.126 83.7315 102.873C88.9258 99.8831 90.2687 98.9455 90.9275 97.78C91.4343 96.8678 91.4596 96.4877 91.4596 84.5281C91.4596 73.354 91.5103 72.1884 91.865 72.0364C92.0931 71.9604 92.4732 72.0111 92.7012 72.1631C92.9293 72.3151 94.7029 73.354 96.654 74.4942C102.938 78.1176 104.534 78.1936 109.703 75.001C109.906 74.8743 111.122 74.1648 112.364 73.4553C113.631 72.7205 115.455 71.6563 116.418 71.0736C117.406 70.4908 118.698 69.7306 119.332 69.4012C119.965 69.0718 120.827 68.5397 121.257 68.2357C122.195 67.5515 123.056 67.4755 123.234 68.0836C123.31 68.337 123.36 69.3759 123.36 70.4148C123.36 72.1124 123.436 72.3911 124.095 73.202C125.007 74.3422 126.73 74.9756 128.96 75.001C131.241 75.001 131.975 74.7476 135.168 72.8726C136.714 71.9604 139.146 70.5668 140.59 69.756C143.935 67.8809 144.872 67.0448 145.177 65.7525C145.303 65.1951 145.43 59.4687 145.43 53.0074C145.43 43.7083 145.354 41.1238 145.075 40.465C144.771 39.7049 143.302 38.2606 142.845 38.2606C142.719 38.2606 142.313 38.0326 141.933 37.7792C140.54 36.8163 133.09 32.4835 131.899 31.9768C129.543 30.9126 125.615 31.5207 124.019 33.193C123.386 33.8518 123.31 34.1558 123.158 36.4109C123.006 38.7167 122.955 38.8941 122.448 38.9701C121.992 39.0461 120.7 38.362 120.092 37.7539C120.016 37.6778 119.686 37.4751 119.357 37.2978C119.028 37.0951 118.369 36.7403 117.913 36.4616C117.431 36.2082 116.62 35.7521 116.114 35.4481C115.582 35.144 114.973 34.764 114.745 34.5612C114.543 34.3585 114.239 34.2065 114.112 34.2065C113.985 34.2065 113.25 33.8011 112.49 33.2943C111.73 32.7876 110.463 32.0274 109.703 31.622C108.943 31.2166 107.803 30.5832 107.169 30.2284C105.446 29.2402 102.304 29.1135 100.505 29.9244C99.7706 30.2538 99.0104 30.6338 98.8077 30.8112C98.0222 31.4446 95.4884 32.6862 95.007 32.6862C94.3989 32.6862 94.4242 32.9649 94.5002 28.2014C94.5509 23.8432 94.3482 23.0831 92.8532 22.0949C92.3718 21.7908 91.8651 21.5374 91.7384 21.5374C91.6117 21.5374 91.2569 21.2334 90.9529 20.8533C90.4461 20.1945 90.4208 19.9411 90.4715 14.3414L90.5221 8.5136L89.5846 7.70278C89.0525 7.2467 87.7096 6.3852 86.5947 5.77708C85.4798 5.16897 84.1622 4.4595 83.7062 4.18078C83.2501 3.90206 82.4139 3.42063 81.8565 3.11658C81.299 2.81252 80.3362 2.22974 79.7534 1.84967C77.0929 0.177353 76.5861 -1.52588e-05 74.4071 -1.52588e-05C72.6841 0.025322 72.1013 0.126671 70.9357 0.70945ZM77.777 1.69764C86.6961 6.68926 89.686 8.69097 89.686 9.7045C89.686 9.9072 89.3819 10.414 89.0018 10.8194C87.6842 12.213 82.9967 12.517 81.5778 11.3008C81.223 10.9967 77.8784 9.07104 76.2061 8.18421C75.826 7.98151 75.4459 7.72813 75.3699 7.5761C74.9645 6.94264 73.4949 7.42406 70.6063 9.12172C68.934 10.1099 67.5151 10.8954 67.3884 10.8954C67.287 10.8954 67.059 11.0474 66.9069 11.2501C66.7296 11.4528 66.1975 11.6809 65.6907 11.7822C65.2093 11.8582 64.5758 12.061 64.3478 12.2383C63.6383 12.6691 60.3697 11.8076 59.4829 10.9461C58.6214 10.1352 58.5707 9.14706 59.3562 8.43759C59.9643 7.90549 62.5741 6.28384 63.5877 5.82776C64.3478 5.49836 65.184 5.01694 65.64 4.6622C65.8427 4.51017 66.7296 3.97807 67.6418 3.47131C68.5539 2.98989 69.9982 2.17906 70.8597 1.69764C73.2415 0.329376 75.3446 0.329376 77.777 1.69764ZM73.6722 8.91901C73.8496 9.09638 73.9763 9.80585 73.9763 10.5153C73.9763 12.0103 73.6976 12.365 72.0759 12.8971C71.5185 13.0745 70.5303 13.5559 69.8462 13.9613C69.1874 14.3667 68.5793 14.6961 68.5033 14.6961C68.3005 14.6961 64.7532 16.7992 64.6012 17.0272C64.5252 17.1286 64.1704 17.3313 63.841 17.4833C63.4863 17.6354 62.7515 18.0408 62.194 18.3702C60.0656 19.6624 59.3055 20.0171 58.9254 19.8651C58.6974 19.7891 58.52 19.5864 58.52 19.409C58.3933 11.5035 58.368 11.6555 60.2937 12.3143C60.9525 12.5424 62.3968 12.7451 63.7143 12.7704L65.9948 12.7958L69.0354 11.0474C70.6823 10.0846 72.2026 9.14706 72.4053 8.9697C72.8361 8.53895 73.2668 8.5136 73.6722 8.91901ZM77.1182 9.62849C77.7263 10.0592 79.2466 10.9461 80.4882 11.6049C82.6166 12.7451 82.794 12.7958 84.669 12.7704C85.7332 12.7451 87.1775 12.5931 87.8616 12.4157C89.9393 11.8836 89.9393 11.8836 89.9393 15.9124C89.9393 20.3212 89.7113 20.6506 87.5322 19.1556C86.2906 18.2941 85.6572 17.9141 83.1994 16.6218C82.7433 16.3938 82.2619 16.039 82.0845 15.8363C81.9071 15.6336 81.6538 15.4563 81.5271 15.4563C81.4004 15.4563 80.4122 14.9495 79.3227 14.316C78.2331 13.6826 76.9662 13.0491 76.4848 12.8971C75.0405 12.4157 74.7364 11.9849 74.7364 10.5153C74.7364 9.80585 74.8125 9.12172 74.9138 9.04571C75.2432 8.69097 76.0034 8.89368 77.1182 9.62849ZM77.2196 14.1894C78.0051 14.6201 78.8412 15.0508 79.0439 15.1775C79.9561 15.7603 85.8346 19.1556 86.5187 19.5357C86.9241 19.7638 88.2417 20.4732 89.4326 21.1067C93.1826 23.1084 94.0441 24.1726 93.1066 25.4902C92.8279 25.9209 88.4444 28.6321 88.0643 28.6321C87.963 28.6321 83.9849 30.8619 83.098 31.4193C82.8953 31.546 81.299 32.4582 79.576 33.4464L76.4594 35.2454L74.3817 35.2707L72.304 35.2961L66.8563 32.1795C63.8664 30.4818 61.3326 28.9868 61.1805 28.8855C61.0538 28.7841 59.9136 28.1507 58.6467 27.4919C55.3274 25.7436 54.7446 25.1101 55.2767 23.9445C55.5301 23.3618 57.6332 21.7655 58.672 21.3601C59.0521 21.2334 60.9778 20.1185 62.8275 19.0036C63.0302 18.8769 63.7904 18.4715 64.4745 18.0914C65.184 17.7367 65.9188 17.2806 66.1215 17.1032C66.5015 16.7992 68.1992 15.8363 71.1384 14.2654C73.3175 13.1252 75.1419 13.0998 77.2196 14.1894ZM93.436 27.1625C93.7654 27.4919 93.8668 33.117 93.5374 33.5984C93.3347 33.9278 91.1049 35.2961 87.1521 37.5258C84.821 38.8687 84.0609 39.4008 83.6808 40.1103C83.4781 40.4904 83.3768 42.036 83.3514 44.7472C83.3514 48.6493 83.3261 48.8266 82.794 49.3334C80.9443 51.0057 80.1335 50.955 80.0068 49.2067C79.9308 48.1172 79.8548 47.9651 78.9172 47.4584C76.9409 46.3942 74.6858 45.3553 74.3057 45.3553C73.8496 45.3553 71.0117 46.7489 70.429 47.2557C70.2262 47.433 69.7955 47.6611 69.4914 47.7371C69.01 47.8891 68.9087 48.0918 68.9087 49.0293C68.9087 50.4736 68.4019 50.803 67.211 50.1189C65.4627 49.08 65.3613 48.7506 65.3613 44.4431C65.3613 40.6171 65.3613 40.5664 64.6772 39.7809C64.0437 38.9954 62.6501 37.9819 61.3072 37.3231C60.9525 37.1457 60.2177 36.7403 59.6602 36.4109C59.1028 36.0815 58.2413 35.6001 57.7599 35.3214C54.7193 33.5731 54.7446 33.6237 54.9473 29.899L55.0994 27.2385L55.8595 27.2639C56.2903 27.2892 57.2531 27.7199 58.0133 28.2267C58.7734 28.7335 59.5082 29.1389 59.6602 29.1389C59.8123 29.1389 60.5471 29.5443 61.3072 30.051C62.0674 30.5578 63.3343 31.318 64.0944 31.7234C64.8546 32.1288 65.8934 32.6862 66.3748 32.9903C66.8563 33.2943 67.7431 33.8011 68.3512 34.1305C68.934 34.4346 69.9475 35.0173 70.6317 35.3974C71.7212 36.0309 72.0506 36.0815 74.3564 36.0815H76.8902L81.9578 33.1676C84.745 31.546 87.6082 29.899 88.2924 29.519C90.4208 28.3281 90.7755 28.1 91.8397 27.4666C93.0306 26.7571 93.0306 26.7571 93.436 27.1625ZM48.0047 30.7859C48.7141 31.1406 49.677 31.698 50.1838 32.0021C50.6905 32.3061 52.3375 33.269 53.8578 34.1558C55.3781 35.0173 57.0757 36.0309 57.6332 36.3603C58.1906 36.715 58.8241 37.0697 59.0268 37.1457C59.2295 37.2471 60.2177 37.7792 61.1805 38.3366C65.3867 40.7184 65.412 41.9347 61.3072 44.1644C60.395 44.6458 58.9254 45.4567 58.0639 45.9634C57.1771 46.4702 56.4169 46.8756 56.3663 46.8756C56.3156 46.8756 54.9727 47.6357 53.4017 48.5479C47.3966 52.0699 47.5739 51.9939 45.2175 51.9939C42.8357 51.9939 43.5452 52.3233 35.9944 47.9145C33.5619 46.5209 31.5602 45.3553 31.5349 45.3553C31.2308 45.3553 26.8726 42.6695 26.5432 42.2641C25.9858 41.6306 25.9858 40.8198 26.5432 40.161C26.7713 39.8823 29.6092 38.1086 32.8018 36.2589C37.9961 33.2183 39.415 32.4075 42.8103 30.6085C44.1279 29.9244 46.4084 30.0004 48.0047 30.7859ZM106.384 30.7605C106.612 30.9379 107.372 31.4446 108.081 31.8247C110.033 32.9143 113.022 34.6626 113.884 35.2454C114.315 35.4988 114.999 35.9042 115.404 36.1322C115.835 36.3349 116.595 36.7657 117.102 37.0697C117.634 37.3738 118.724 38.0072 119.585 38.438C123.386 40.4904 123.563 41.9093 120.218 43.7337C117.71 45.1019 116.671 45.6847 116.418 45.8621C115.936 46.2421 113.377 47.6611 112.946 47.8131C112.693 47.8891 112.49 48.0412 112.49 48.1678C112.49 48.2945 112.364 48.3959 112.237 48.3959C112.085 48.3959 110.97 49.004 109.754 49.7641C106.713 51.6392 106.232 51.8672 104.737 52.0699C103.267 52.2473 100.683 51.8672 100.1 51.3351C99.7706 51.0564 94.0948 47.7371 90.066 45.4567C89.5086 45.1526 88.4191 44.5191 87.6336 44.0377C86.8228 43.5816 85.8346 42.9989 85.4038 42.7708C84.5677 42.3147 84.1369 41.2252 84.5423 40.5664C84.8717 40.0596 86.5187 38.9194 88.9258 37.5511C89.9647 36.943 91.0035 36.3603 91.2063 36.2336C94.4495 34.2825 97.034 32.7876 98.6557 31.9514C99.7452 31.394 100.759 30.8365 100.936 30.6845C101.671 30.0764 105.649 30.1017 106.384 30.7605ZM22.2104 32.7876C23.9081 33.5731 24.4908 34.4346 24.0601 35.4734C23.7054 36.3096 23.1226 36.7403 20.8168 37.9312C19.93 38.362 19.0685 38.8434 18.9164 38.9701C18.7391 39.0968 18.0043 39.5275 17.2695 39.9076C16.5347 40.2877 15.8759 40.6931 15.7999 40.8198C15.5465 41.2252 15.9519 42.036 16.5093 42.2134C16.8134 42.2894 18.0296 42.9735 19.2205 43.683C20.4114 44.4178 21.577 45.0766 21.7797 45.1526C22.8439 45.5834 24.3135 46.9263 24.3135 47.4837C24.3135 48.1678 23.4266 49.4094 22.9199 49.4094C22.7425 49.4094 22.2611 49.5868 21.881 49.7895C20.7661 50.3469 18.3337 50.2456 17.0414 49.5868C16.4333 49.2827 13.8488 47.8131 11.2643 46.2928C8.67983 44.7979 6.47541 43.5816 6.34872 43.5816C5.96865 43.5816 4.04294 41.6306 4.04294 41.2252C4.04294 40.5411 5.25918 39.6035 8.73051 37.6018C12.4806 35.4227 12.81 35.2454 13.6714 34.6879C14.7863 33.9531 17.3201 32.6102 17.9789 32.4075C19.2458 32.0274 20.8675 32.1795 22.2104 32.7876ZM131.317 32.7369C132.457 33.2183 133.85 34.0038 137.955 36.5123C138.386 36.7657 139.07 37.1457 139.475 37.3738C141.731 38.5393 144.112 40.237 144.29 40.7944C144.67 42.0107 144.112 42.7708 141.883 44.0124C141.401 44.2911 138.766 45.7861 136.055 47.357C130.962 50.2709 130.683 50.3723 128.073 50.1949C126.35 50.0682 124.146 48.5733 124.146 47.5091C124.146 47.0276 125.311 45.9634 126.502 45.3806C128.149 44.5445 130.303 43.3029 130.734 42.9482C130.937 42.7708 131.494 42.4414 131.95 42.2134C133.344 41.5039 133.04 40.9971 130.176 39.3248C128.732 38.4887 127.009 37.5005 126.3 37.1204C123.436 35.5494 123.462 34.2065 126.426 32.8889C128.377 32.0021 129.518 31.9768 131.317 32.7369ZM125.286 37.4751C125.362 37.6272 125.742 37.8805 126.122 38.0833C130.126 40.1863 131.114 40.8198 131.19 41.2505C131.241 41.6306 130.708 42.036 128.707 43.1509C127.313 43.9617 126.046 44.5952 125.92 44.5952C125.793 44.5952 125.59 44.7725 125.463 45.0006C125.337 45.2286 125.007 45.3553 124.754 45.3046C124.298 45.2286 124.273 44.9246 124.197 41.4532C124.146 38.59 124.222 37.6272 124.45 37.4498C124.881 37.1964 125.109 37.1964 125.286 37.4751ZM24.2375 37.8045C24.3388 37.9819 24.4402 39.6542 24.4908 41.4786C24.5415 44.6458 24.5162 44.8485 24.0348 45.1273C23.6293 45.33 23.4266 45.3046 23.0972 45.0259C22.6158 44.5952 18.6124 42.264 17.9029 41.9853C16.8894 41.6053 17.5735 40.8198 20.3861 39.1728C23.2746 37.5005 23.8827 37.2724 24.2375 37.8045ZM86.468 44.4431C87.2028 44.9246 88.3937 45.634 89.1285 46.0394C89.8887 46.4195 90.8008 46.9009 91.1556 47.1036C91.5357 47.3063 91.8904 47.5344 91.9664 47.6104C92.0424 47.7118 92.3718 47.9145 92.7265 48.0918C93.0813 48.2439 93.7147 48.5986 94.1201 48.852C94.5509 49.08 95.6658 49.7388 96.6286 50.2962C97.5661 50.8537 98.9344 51.6392 99.6692 52.0699C100.885 52.7794 101.113 52.8301 103.749 52.8301C106.181 52.8301 106.637 52.7541 107.296 52.298C107.727 51.9939 109.703 50.7777 111.73 49.6121C122.372 43.4043 122.169 43.5056 122.499 43.8857C122.752 44.1391 122.778 46.6222 122.676 55.0598C122.55 67.5515 122.752 66.5887 119.94 68.033C119.104 68.4384 118.394 68.8691 118.318 68.9451C118.242 69.0212 117.279 69.5786 116.164 70.1867C115.049 70.7695 113.96 71.4029 113.757 71.5803C113.555 71.7323 113.2 71.9604 112.997 72.0617C112.794 72.1378 112.161 72.4925 111.603 72.8472C111.046 73.1766 110.362 73.582 110.083 73.7341C109.804 73.8607 109.12 74.2915 108.563 74.6209C106.206 76.1158 103.926 76.5973 101.798 76.0652C100.531 75.7358 92.8786 71.5296 92.0424 70.6681C91.4596 70.1107 91.4596 70.0347 91.4596 62.5853C91.4596 53.9956 91.5863 54.5277 89.2045 53.2862C88.4697 52.9061 87.3802 52.3233 86.7974 52.0192C86.24 51.7152 85.5052 51.4618 85.2011 51.4618C84.8971 51.4365 84.5676 51.3098 84.4663 51.1324C84.1369 50.6003 84.0609 44.6712 84.365 44.0884C84.7197 43.4043 84.9477 43.4296 86.468 44.4431ZM6.34872 44.5445C6.95683 44.9246 7.69164 45.3806 7.97036 45.558C8.24908 45.7354 8.83186 46.0394 9.23727 46.2675C9.66802 46.4702 10.4028 46.9009 10.9349 47.205C17.2188 50.955 17.3455 51.0057 19.6513 51.0057C21.1462 51.0057 21.881 50.879 22.3118 50.575C22.6412 50.3469 23.2239 50.1696 23.604 50.1696H24.3135V60.7863C24.3135 66.6394 24.2121 71.6817 24.0854 72.0111C23.68 73.1006 22.0837 73.9621 20.1073 74.1395C17.9536 74.3422 18.207 74.4435 10.4535 69.9587C6.6021 67.7289 5.03113 66.69 4.62572 66.0566C4.04294 65.2204 4.04294 65.1951 4.04294 54.5277V43.835H4.62572C4.95512 43.835 5.71526 44.1391 6.34872 44.5445ZM28.3169 44.5952C28.8997 45.0006 29.4318 45.3553 29.5078 45.3553C29.6092 45.3553 30.8254 46.0141 32.2443 46.8503C33.6633 47.6611 35.2596 48.5733 35.7663 48.852C36.2731 49.156 37.1599 49.6628 37.7174 50.0175C38.2748 50.3976 38.7816 50.6763 38.8576 50.6763C38.9083 50.6763 39.7444 51.1577 40.6819 51.7405L42.4303 52.8301L45.2428 52.8047C47.7513 52.8047 48.1314 52.7287 48.7648 52.2473C49.1449 51.9432 49.5503 51.6898 49.677 51.6898C49.7783 51.6898 50.6905 51.2084 51.7294 50.6003C52.7429 49.9922 53.7564 49.4094 53.9591 49.3081C54.1618 49.2067 54.5673 49.004 54.846 48.8266C55.1247 48.6493 56.569 47.8384 58.0133 47.0276C59.4829 46.1915 61.3326 45.1526 62.1434 44.6712C64.6265 43.2522 64.6012 43.2522 64.6012 47.357C64.6012 49.8655 64.4998 50.9297 64.2971 51.1071C64.1198 51.2591 63.4103 51.5632 62.7008 51.8165C62.0167 52.0699 61.2565 52.4247 61.0538 52.5767C60.8511 52.7287 60.395 53.0074 60.0403 53.1595C59.6856 53.3368 59.0775 53.6662 58.6467 53.9196L57.8866 54.401L57.7599 62.3065L57.6332 70.2121L56.9997 70.7188C56.645 70.9975 55.9102 71.4283 55.3527 71.707C54.7953 71.9857 53.9338 72.4672 53.427 72.7965C46.7884 76.876 44.9388 77.2054 41.2394 75.077C40.3525 74.5702 39.415 74.0381 39.1363 73.8861C38.8576 73.7341 38.1481 73.278 37.54 72.8979C36.9319 72.5178 36.1971 72.0871 35.893 71.9604C35.589 71.8084 35.1582 71.6057 34.9555 71.479C33.8406 70.7695 28.3169 67.6529 28.1649 67.6529C27.8355 67.6276 26.6699 66.5127 26.3659 65.9552C26.0618 65.3471 25.9351 44.3164 26.2645 44.0124C26.5939 43.6576 27.3034 43.8604 28.3169 44.5952ZM144.366 55.0092C144.416 65.7019 144.416 65.8032 143.884 66.4873C143.58 66.8674 143.099 67.2982 142.795 67.4249C142.516 67.5769 141.807 67.957 141.249 68.2864C140.692 68.6411 140.058 68.9958 139.856 69.0972C139.653 69.1985 138.994 69.6039 138.437 69.984C137.854 70.3641 137.296 70.6935 137.195 70.6935C137.094 70.6935 136.714 70.8962 136.359 71.1749C135.979 71.4283 134.661 72.1884 133.394 72.8726C131.241 74.0128 131.013 74.0888 129.087 74.0888C127.414 74.1141 126.882 74.0128 126.021 73.506C124.095 72.4165 124.146 72.7965 124.146 60.989C124.146 49.0547 124.07 49.4601 125.97 50.4736C127.541 51.3098 130.911 51.2844 132.381 50.4483C132.938 50.1189 133.85 49.5868 134.408 49.2827C134.965 48.9787 136.08 48.3705 136.891 47.9145C137.702 47.4837 139.475 46.4448 140.818 45.6087C142.161 44.7725 143.504 44.1137 143.783 44.1644C144.29 44.2151 144.29 44.4178 144.366 55.0092ZM76.6621 47.205C78.6385 48.3199 78.6385 48.776 76.6368 49.8655C74.8885 50.803 73.6976 50.8284 72.5574 49.9415C72.1773 49.6375 71.6705 49.4094 71.4425 49.4094C70.9611 49.4094 70.6823 48.928 70.6823 48.1425C70.6823 47.8384 71.0117 47.6104 71.8226 47.3824C72.4307 47.205 73.0895 46.9009 73.2415 46.7236C73.7229 46.1155 75.1165 46.3182 76.6621 47.205ZM79.2973 51.7152C79.2973 52.9061 79.196 53.2355 78.8159 53.4382C78.4612 53.6409 78.2584 53.6156 78.0304 53.3368C77.853 53.1341 77.5743 52.9568 77.3716 52.9568C77.1942 52.9568 76.7128 52.678 76.3327 52.3486C75.4966 51.6138 75.5979 51.4871 77.4476 50.3976C78.9933 49.4854 79.2973 49.7135 79.2973 51.7152ZM72.5067 50.803C73.0388 51.1577 73.3935 51.5885 73.3175 51.7659C73.1401 52.2473 70.4036 53.7676 69.9982 53.6156C69.5928 53.4382 69.4408 51.1831 69.7955 50.1949C69.9729 49.7135 71.3158 50.0175 72.5067 50.803ZM67.5911 51.1577C68.7566 52.0192 69.1367 52.8301 68.6046 53.3622C68.3006 53.6916 68.0725 53.6662 67.0843 53.2101C65.9441 52.7034 65.6147 52.3233 65.6147 51.4618C65.6147 51.0311 66.0708 50.4229 66.3748 50.4229C66.4762 50.4229 67.0083 50.7523 67.5911 51.1577ZM83.2247 51.5125C83.2247 52.3993 83.1234 52.526 82.0338 53.1341C80.6656 53.8943 80.0575 53.7676 80.0575 52.7541C80.0575 52.222 80.3108 51.8419 81.1217 51.2338C82.5659 50.1442 83.2247 50.2202 83.2247 51.5125ZM66.4509 53.8689C68.8073 55.2119 68.9847 55.2625 69.7448 54.9585C70.2009 54.7811 70.733 54.5024 70.9357 54.3504C71.1384 54.173 71.5692 53.945 71.8732 53.8689C72.2026 53.7676 72.6334 53.5142 72.8361 53.2862C73.0641 53.0835 73.6976 52.8554 74.255 52.7794C75.0405 52.6527 75.4459 52.7541 76.0033 53.1848C76.4088 53.4635 76.9155 53.7169 77.1182 53.7169C77.3209 53.7169 77.5743 53.8436 77.6503 53.9703C77.7517 54.1223 78.2584 54.4517 78.7906 54.7304C79.6774 55.1865 79.8294 55.1865 80.6656 54.8571C81.147 54.6544 81.6031 54.3757 81.6791 54.249C81.7551 54.1223 82.1352 53.9449 82.5153 53.8436C82.9207 53.7676 83.4021 53.5395 83.6048 53.3622C83.8075 53.1848 84.365 52.9061 84.7957 52.7034C85.5812 52.4247 85.7585 52.45 87.5322 53.3368C89.1285 54.1223 89.4326 54.3757 89.4326 54.8825C89.4326 55.2879 89.2299 55.5919 88.8751 55.744C87.2535 56.4281 85.2518 57.695 85.1758 58.0751C85.1251 58.3538 85.4292 58.6832 86.0626 59.0379C86.5947 59.3166 87.2028 59.646 87.4055 59.7981C87.6082 59.9248 88.1403 60.1781 88.5457 60.3555C89.0525 60.5835 89.3312 60.8876 89.3819 61.3184C89.4579 61.8758 89.2552 62.0532 87.7856 62.788C86.8734 63.2187 85.8599 63.5988 85.5558 63.5988C85.2264 63.5988 83.8835 63.016 82.5406 62.3319C80.1081 61.065 79.2213 60.8369 78.9172 61.3437C78.8159 61.4704 78.4865 61.6984 78.2078 61.8505C77.5743 62.1038 76.9155 62.5093 76.0287 63.1427C75.2432 63.7255 74.0016 63.7001 73.2162 63.092C72.8614 62.8133 72.5067 62.5853 72.4053 62.5853C72.304 62.5853 71.6452 62.2305 70.9864 61.8251C69.7195 61.065 68.706 60.8623 68.2752 61.293C68.1232 61.445 67.1097 62.0278 65.9948 62.5853C64.3478 63.4721 63.8157 63.6241 63.0049 63.5228C62.4728 63.4468 61.8393 63.2187 61.6113 63.016C61.3832 62.8133 60.9018 62.5599 60.5471 62.4586C59.1028 62.0278 59.1788 61.0143 60.7498 60.2288C64.3478 58.4045 64.5505 58.0244 62.5234 56.9095C61.7886 56.5041 60.8004 55.9973 60.3697 55.7946C59.7109 55.4652 59.5335 55.2372 59.5335 54.6798C59.5335 54.2743 59.6856 53.9703 59.8629 53.9703C60.015 53.9703 60.8511 53.6409 61.6873 53.2101C62.5234 52.8047 63.3596 52.4753 63.5623 52.45C63.765 52.45 65.0573 53.0835 66.4509 53.8689ZM60.4711 56.7575C60.8258 57.0362 61.2565 57.2642 61.4339 57.2642C61.7633 57.2642 62.0674 57.7963 62.0674 58.4045C62.0674 58.7845 59.7616 60.0514 59.0521 60.0514C58.444 60.0514 58.2666 59.57 58.2666 57.8977C58.2666 57.0615 58.3933 56.5041 58.596 56.4281C59.2295 56.1494 59.8629 56.2761 60.4711 56.7575ZM90.6995 58.0244C90.6995 59.722 90.6741 59.8234 90.0154 60.1275C89.4833 60.3555 89.3312 60.3555 89.2299 60.1021C89.1792 59.8994 88.6218 59.5447 88.0136 59.2913C87.1268 58.9112 86.8988 58.6832 86.8988 58.1764C86.8988 57.6697 87.1522 57.4416 88.2417 56.9095C88.9512 56.5548 89.8127 56.2761 90.1421 56.2507C90.6742 56.2507 90.6995 56.3521 90.6995 58.0244ZM69.01 62.9907C69.086 63.168 69.0607 64.891 68.9847 66.7914C68.8073 70.4401 68.6553 70.8708 67.6164 70.2374C67.1097 69.908 66.1468 69.832 65.5133 70.0854C64.9812 70.2881 65.26 70.6935 65.9441 70.6935C66.2482 70.6935 66.7296 70.8455 67.0336 71.0229C67.3377 71.1749 68.1232 71.631 68.8073 72.0111C69.4914 72.4165 70.505 72.9993 71.0624 73.354C72.5574 74.2662 74.1283 75.001 74.6604 75.001C75.1419 75.001 81.0456 71.783 81.4511 71.3016C81.8311 70.8455 83.7822 70.3894 84.441 70.5921C84.745 70.7188 85.9359 70.7695 87.0508 70.7188C89.0272 70.6681 89.1285 70.6935 89.6606 71.3523C89.9393 71.7323 90.1927 72.2644 90.1927 72.5685C90.1927 73.278 89.0525 74.5956 87.887 75.229C86.2653 76.0905 85.7839 76.3946 85.4292 76.6986C85.2518 76.876 84.9731 77.028 84.821 77.028C84.669 77.028 84.3396 77.18 84.1369 77.3828C83.9089 77.5855 83.174 78.0415 82.4646 78.3963C81.7805 78.7764 81.0203 79.1818 80.8176 79.3085C80.6149 79.4605 79.576 80.0433 78.5372 80.626C76.7382 81.6649 76.5355 81.7156 74.6098 81.6902H72.5827L67.6418 78.8017C64.9306 77.2307 62.0674 75.5837 61.2565 75.153C59.6602 74.2915 59.0268 73.43 59.0268 72.1378C59.0268 70.8455 59.4068 70.6681 62.0167 70.7442C63.2836 70.7948 64.3985 70.7442 64.4998 70.6428C64.6012 70.5161 64.4998 70.2374 64.2718 69.984C63.9424 69.6293 63.841 69.0212 63.841 67.4249C63.841 66.2846 63.9677 65.1191 64.0944 64.8657C64.2464 64.587 64.9306 64.1056 65.64 63.7255C66.3495 63.3708 67.135 62.94 67.4137 62.7373C67.9965 62.3319 68.8073 62.4586 69.01 62.9907ZM82.4899 63.1934C85.1251 64.739 84.9984 64.5616 85.0744 66.9688C85.2011 69.8573 84.9731 70.2627 83.3768 70.0347C82.4392 69.908 81.9832 69.984 81.4764 70.3134C80.9443 70.6681 80.7416 70.6935 80.4375 70.4401C79.9308 70.0093 79.8801 62.712 80.3869 62.5093C80.8936 62.2812 80.9696 62.3065 82.4899 63.1934ZM62.6501 64.663C62.9795 65.0684 63.0809 65.6258 63.0809 67.2728C63.0809 69.984 62.8022 70.2881 60.5724 70.0347C59.7362 69.9587 58.9254 69.7306 58.7987 69.5786C58.672 69.4266 58.52 67.957 58.4947 66.31C58.4187 63.6241 58.444 63.2694 58.8747 62.9653C59.2802 62.6613 59.5335 62.712 60.7751 63.3961C61.5606 63.8268 62.3968 64.4096 62.6501 64.663ZM71.4171 62.94C71.5692 63.1427 72.0506 63.4214 72.4813 63.5988C73.0895 63.8522 73.2161 64.0549 73.1655 64.587C73.1148 65.0177 72.9121 65.2711 72.5827 65.3471C72.304 65.3978 71.7465 65.6765 71.3411 65.9552C70.3023 66.69 69.8208 66.31 69.7195 64.6123C69.6688 63.8775 69.6942 63.1174 69.7702 62.94C69.9475 62.4839 71.0371 62.4839 71.4171 62.94ZM79.2466 64.2829C79.3226 65.6512 79.2466 65.8792 78.7906 66.1326C78.3598 66.3606 78.1571 66.3353 77.8277 66.0313C77.5743 65.8285 77.0929 65.5498 76.6875 65.3978C75.6993 65.0177 75.75 64.0295 76.7635 63.5988C77.1689 63.4214 77.6503 63.1174 77.8024 62.9147C77.9797 62.7373 78.3598 62.5853 78.6385 62.6359C79.0946 62.712 79.1706 62.9147 79.2466 64.2829ZM90.6488 65.4992C90.7502 69.1985 90.6488 69.6293 89.4833 69.8066C88.9765 69.8827 88.2164 70.06 87.8109 70.1867C87.2282 70.3641 86.8988 70.3387 86.468 70.06C85.9359 69.7053 85.8852 69.4772 85.8852 67.4249C85.8852 65.5498 85.9613 65.0684 86.4173 64.511C86.6961 64.1562 87.0761 63.8522 87.2535 63.8522C87.4055 63.8522 88.0136 63.6241 88.5457 63.3454C90.3701 62.4079 90.5728 62.5853 90.6488 65.4992ZM75.8513 65.7525C76.054 65.9552 76.6621 66.2846 77.1942 66.462C77.9291 66.69 78.1824 66.9181 78.2331 67.4249C78.3091 67.9823 78.1064 68.1597 76.7382 68.8691C74.9645 69.7813 73.8243 69.8827 72.9374 69.2239C72.608 68.9705 72.0253 68.6157 71.6452 68.4384C70.505 67.8556 70.6823 66.9688 72.0506 66.386C72.6587 66.1326 73.2415 65.8032 73.3175 65.6512C73.5709 65.2458 75.3952 65.3218 75.8513 65.7525ZM71.8986 69.4266C72.4813 69.832 73.0388 70.1867 73.1401 70.1867C73.5455 70.1867 74.2297 71.0736 74.2297 71.6057C74.2297 71.935 74.3564 72.2644 74.4831 72.3405C74.6351 72.4165 74.7364 72.2898 74.7364 72.0364C74.7364 71.2763 75.3952 70.5668 76.9662 69.6293C78.7906 68.5397 79.2973 68.6664 79.2973 70.2374C79.2973 71.2509 78.5625 72.4672 77.9797 72.4672C77.853 72.4672 77.3209 72.7712 76.7635 73.1259C75.8767 73.7087 75.6486 73.7594 75.0912 73.506C74.6604 73.3033 74.3057 73.3033 73.9763 73.4807C73.2161 73.8861 70.3023 72.1884 69.9475 71.1496C69.5675 70.0854 69.5928 69.68 70.0996 69.1225C70.6317 68.5144 70.6823 68.5397 71.8986 69.4266ZM60.7751 75.7358C61.2819 76.1158 62.2701 76.7746 62.9542 77.1547C63.6637 77.5348 65.5387 78.6243 67.135 79.5618C72.1013 82.4757 72.0506 82.4504 74.6098 82.4757C76.6621 82.4757 77.0169 82.3997 78.1571 81.7409C78.8666 81.3355 80.0575 80.6767 80.8176 80.246C81.5778 79.8406 82.3886 79.3591 82.5913 79.2071C82.794 79.0297 83.2501 78.751 83.6048 78.599C84.1876 78.3203 84.593 78.0669 86.7721 76.7493C89.1792 75.2544 90.4208 74.8743 90.4715 75.5584C90.4715 75.7358 90.4714 80.626 90.4461 86.4031L90.4208 96.9185L89.7113 97.8053C89.3312 98.2867 88.7231 98.8442 88.3684 99.0722C87.9883 99.2749 86.7467 100.01 85.5812 100.719C84.441 101.403 83.3514 102.037 83.2247 102.113C83.0727 102.189 81.6538 103.025 80.0575 104.013L77.1436 105.787L74.9645 105.863C72.7854 105.964 71.6959 105.685 70.1756 104.647C69.9729 104.52 68.2499 103.506 66.3748 102.417C61.6113 99.655 61.814 99.7817 60.6991 98.9962C58.9508 97.78 59.0521 98.4641 59.0268 86.4285C59.0014 80.4233 59.0775 75.4064 59.1535 75.2543C59.4068 74.8489 59.7869 74.9503 60.7751 75.7358Z" fill="black"/>
<path d="M71.3158 19.2823C67.5404 21.4107 66.9323 21.7908 65.412 22.703C64.6265 23.1591 63.841 23.5645 63.689 23.5645C63.5116 23.5645 63.3089 23.7418 63.2329 23.9699C63.0302 24.4766 63.2836 25.3381 63.613 25.3381C63.7397 25.3381 66.1215 26.6557 68.9087 28.252C71.6705 29.8483 74.103 31.1659 74.3057 31.1659C74.5084 31.1659 74.9645 30.9379 75.3192 30.6592C75.674 30.3804 76.13 30.1524 76.3328 30.1524C76.5608 30.1524 76.8142 30.0257 76.8902 29.899C76.9915 29.747 77.4223 29.4683 77.853 29.2402C78.7399 28.8348 79.0439 28.6574 82.794 26.5037C84.2129 25.6929 85.4545 24.9327 85.5305 24.7807C85.7839 24.3753 85.1251 23.8432 81.7298 21.8922C79.9054 20.828 78.0051 19.7131 77.5236 19.4344C75.8513 18.4715 74.7618 17.9901 74.179 17.9901C73.8496 17.9901 72.5827 18.5729 71.3158 19.2823ZM73.6722 19.561C73.8749 19.7637 73.9763 21.2587 73.9763 24.6287C73.9763 28.5561 73.9003 29.4429 73.6216 29.5443C73.2162 29.6963 73.1401 29.671 69.4914 27.5932C68.1232 26.7824 66.5015 25.8702 65.8681 25.5409C64.2211 24.6287 64.3478 24.2486 66.8816 22.8803C68.0725 22.2215 69.8969 21.1573 70.9357 20.4986C73.0135 19.181 73.2162 19.105 73.6722 19.561ZM77.3716 20.3719C79.9814 21.9935 81.8311 23.0324 82.9207 23.4885C83.8075 23.8685 84.0862 24.3753 83.6555 24.9834C83.5541 25.1354 82.7433 25.6169 81.8311 26.073C80.919 26.529 79.7281 27.1878 79.1706 27.5172C78.6132 27.8466 77.8784 28.252 77.5236 28.4294C77.1689 28.6068 76.8395 28.8095 76.7635 28.9108C76.4594 29.2656 75.4206 29.671 75.0912 29.5443C74.6098 29.3669 74.5591 20.0425 75.0405 19.561C75.4459 19.1556 75.3192 19.105 77.3716 20.3719Z" fill="black"/>
<path d="M44.4573 34.7386C44.1786 34.8653 43.4945 35.2454 42.937 35.6001C42.3796 35.9549 41.6955 36.3603 41.4167 36.5123C41.138 36.639 40.4539 37.0444 39.8965 37.3738C39.339 37.7285 38.6042 38.1086 38.2748 38.2606C37.9454 38.4127 37.1853 38.8687 36.5772 39.2488C35.9944 39.6542 35.2596 40.0596 34.9808 40.161C34.2207 40.389 33.8153 41.2252 34.2207 41.7066C34.3727 41.9093 35.7157 42.7201 37.1599 43.531C38.6295 44.3165 40.0485 45.1273 40.3525 45.3046C42.2782 46.4702 43.0637 46.9009 44.0772 47.4077L45.2175 47.9651L46.3577 47.3317C46.9911 47.0023 48.5368 46.1661 49.7783 45.482C51.0452 44.8232 52.5149 43.9617 53.0723 43.607C53.6297 43.2522 54.5166 42.7455 55.0233 42.4921C56.1382 41.9347 56.5943 41.4279 56.4169 40.9718C56.3409 40.7691 54.6433 39.6796 52.6416 38.5393C50.6652 37.3991 48.8408 36.3603 48.6381 36.2336C47.802 35.7015 45.3188 34.4599 45.1415 34.4852C45.0401 34.4852 44.736 34.6119 44.4573 34.7386ZM44.7107 41.0732C44.7614 44.0377 44.7107 45.8621 44.5333 46.0394C44.2039 46.4702 43.6972 46.4449 43.2664 46.0394C42.785 45.5834 40.6819 44.3671 36.9065 42.3908C35.3863 41.5799 35.3863 40.9972 36.9826 40.1103C37.616 39.7556 38.4775 39.2488 38.8829 38.9954C39.3137 38.7421 39.8965 38.4127 40.2005 38.286C40.5046 38.1339 41.3154 37.6525 41.9742 37.1711C44.584 35.3467 44.6094 35.3721 44.7107 41.0732ZM47.5232 36.6136C47.9793 36.9684 48.4608 37.2471 48.6128 37.2471C48.7395 37.2471 49.0182 37.3991 49.1956 37.5512C49.3983 37.7285 50.0571 38.1339 50.6652 38.4633C54.8966 40.6931 55.3021 40.9972 54.6939 41.7066C54.5419 41.9093 54.3139 42.0614 54.1872 42.0614C54.0605 42.0614 53.0976 42.5935 52.0081 43.2269C50.9186 43.8604 49.8037 44.4938 49.525 44.6205C49.2462 44.7472 48.5621 45.1273 48.0047 45.482C46.4844 46.3942 46.383 46.4449 45.9776 46.2675C45.6482 46.1661 45.5975 45.3553 45.5975 41.3519C45.5975 35.6508 45.7496 35.2707 47.5232 36.6136Z" fill="black"/>
<path d="M102.735 34.7386C102.456 34.8653 101.924 35.1694 101.57 35.4228C100.632 36.0309 97.7435 37.7285 96.0458 38.666C93.5627 40.009 92.4731 40.7944 92.4731 41.1745C92.4731 41.5039 94.2215 42.8215 94.6776 42.8215C94.7536 42.8215 95.0323 42.9735 95.235 43.1762C95.463 43.3536 96.1472 43.7843 96.7806 44.1391C97.4141 44.4685 98.4023 45.0513 99.0104 45.4313C99.6185 45.8114 100.353 46.2422 100.657 46.3942C100.961 46.5462 101.62 46.8756 102.102 47.129C102.583 47.4077 103.267 47.6104 103.622 47.6104C103.977 47.6104 104.661 47.4077 105.142 47.129C105.624 46.8756 106.308 46.5209 106.663 46.3688C107.017 46.2168 108.157 45.558 109.196 44.8992C111.705 43.3283 111.933 43.2016 113.149 42.5935C115.024 41.6813 115.151 41.0478 113.631 40.161C113.149 39.8823 111.071 38.6914 109.019 37.5258C106.941 36.3349 104.99 35.1694 104.661 34.916C104.002 34.4092 103.495 34.3586 102.735 34.7386ZM106.916 37.2218C107.676 37.7285 108.538 38.286 108.816 38.4633C109.095 38.6154 110.159 39.1981 111.173 39.7049C112.642 40.465 112.997 40.7691 112.997 41.2252C112.997 41.6053 112.769 41.9093 112.44 42.0614C112.11 42.2134 111.173 42.7201 110.337 43.2016C109.5 43.683 108.487 44.2404 108.056 44.4431C107.651 44.6458 106.815 45.1526 106.206 45.6087C105.117 46.3942 104.154 46.4702 104.129 45.7861C104.002 42.8975 104.205 36.563 104.407 36.3349C104.737 35.9295 105.117 36.0815 106.916 37.2218ZM103.217 36.639C103.293 36.867 103.369 39.0208 103.369 41.4279C103.369 45.5834 103.343 45.8621 102.862 46.1155C102.355 46.3942 102.228 46.3435 99.3651 44.5445C98.9851 44.3165 97.6168 43.5816 96.3499 42.9229C93.436 41.4279 93.3853 41.1999 95.6404 39.8823C96.3245 39.4769 97.0847 39.0208 97.3381 38.8941C97.5661 38.7421 98.5036 38.21 99.4158 37.6779C100.328 37.1457 101.139 36.6136 101.215 36.487C101.468 36.0562 103.039 36.1829 103.217 36.639Z" fill="black"/>
</svg>
